<svg width="21" height="20" viewBox="0 0 21 20" fill="none" xmlns="http://www.w3.org/2000/svg">
<path d="M4.99909 18.2251C4.38242 18.2251 3.77409 17.9917 3.30742 17.5251C2.85742 17.0751 2.60742 16.4751 2.60742 15.8334C2.60742 15.1917 2.85742 14.5917 3.30742 14.1417L14.1408 3.3084C15.0741 2.37507 16.5908 2.37507 17.5241 3.3084C17.9741 3.7584 18.2241 4.3584 18.2241 5.00006C18.2241 5.64173 17.9741 6.24173 17.5241 6.69173L6.69075 17.5251C6.22409 17.9917 5.61575 18.2251 4.99909 18.2251ZM15.8324 3.8584C15.5408 3.8584 15.2491 3.96673 15.0241 4.19173L4.19076 15.0251C3.97409 15.2417 3.85742 15.5251 3.85742 15.8334C3.85742 16.1417 3.97409 16.4251 4.19076 16.6417C4.63242 17.0834 5.36575 17.0834 5.80742 16.6417L16.6408 5.8084C16.8574 5.59173 16.9741 5.3084 16.9741 5.00006C16.9741 4.69173 16.8574 4.4084 16.6408 4.19173C16.4158 3.96673 16.1241 3.8584 15.8324 3.8584Z" fill="#727272"/>
<path d="M15.8397 8.11657C15.6814 8.11657 15.523 8.05824 15.398 7.93324L12.898 5.43324C12.6564 5.19157 12.6564 4.79157 12.898 4.5499C13.1397 4.30824 13.5397 4.30824 13.7814 4.5499L16.2814 7.0499C16.523 7.29157 16.523 7.69157 16.2814 7.93324C16.1564 8.05824 15.998 8.11657 15.8397 8.11657Z" fill="#727272"/>
<path d="M9.1659 4.58354C9.12423 4.58354 9.0909 4.57521 9.04923 4.56687L7.9159 4.23354L6.78256 4.56687C6.63256 4.60854 6.47423 4.56687 6.37423 4.45854C6.2659 4.35021 6.22423 4.20021 6.2659 4.05021L6.59923 2.91687L6.2659 1.78354C6.22423 1.63354 6.2659 1.47521 6.37423 1.37521C6.48256 1.26687 6.6409 1.22521 6.78256 1.26687L7.9159 1.60021L9.04923 1.26687C9.19923 1.22521 9.34923 1.26687 9.45756 1.37521C9.5659 1.48354 9.60756 1.64187 9.5659 1.78354L9.23256 2.91687L9.5659 4.05021C9.60756 4.20021 9.5659 4.35854 9.45756 4.45854C9.38256 4.54187 9.27423 4.58354 9.1659 4.58354ZM7.9159 3.38354C7.95756 3.38354 7.9909 3.39187 8.03256 3.40021L8.54923 3.55021L8.39923 3.03354C8.37423 2.95854 8.37423 2.87521 8.39923 2.80021L8.54923 2.28354L8.03256 2.43354C7.95756 2.45854 7.87423 2.45854 7.79923 2.43354L7.28256 2.28354L7.43256 2.80021C7.45756 2.87521 7.45756 2.95854 7.43256 3.03354L7.28256 3.55021L7.79923 3.40021C7.8409 3.39187 7.87423 3.38354 7.9159 3.38354Z" fill="#727272"/>
<path d="M5.83191 9.58354C5.79025 9.58354 5.75691 9.57521 5.71525 9.56687L4.58191 9.23354L3.44858 9.56687C3.29858 9.60854 3.14858 9.56687 3.04024 9.45854C2.93191 9.35021 2.89024 9.19187 2.93191 9.05021L3.26524 7.91687L2.93191 6.78354C2.89024 6.63354 2.93191 6.47521 3.04024 6.37521C3.14858 6.27521 3.30691 6.22521 3.44858 6.26687L4.58191 6.60021L5.71525 6.26687C5.85691 6.22521 6.01524 6.26687 6.12358 6.37521C6.23191 6.48354 6.27358 6.64187 6.23191 6.78354L5.89858 7.91687L6.23191 9.05021C6.27358 9.20021 6.23191 9.35854 6.12358 9.45854C6.04858 9.54187 5.94025 9.58354 5.83191 9.58354ZM4.58191 8.38354C4.62358 8.38354 4.65691 8.39187 4.69858 8.40021L5.21525 8.55021L5.06524 8.03354C5.04024 7.95854 5.04024 7.87521 5.06524 7.80021L5.21525 7.28354L4.69858 7.43354C4.62358 7.45854 4.54024 7.45854 4.46524 7.43354L3.94858 7.28354L4.09858 7.80021C4.12358 7.87521 4.12358 7.95854 4.09858 8.03354L3.94858 8.55021L4.46524 8.40021C4.50691 8.39187 4.54024 8.38354 4.58191 8.38354Z" fill="#727272"/>
<path d="M18.3319 13.75C18.2902 13.75 18.2569 13.7417 18.2152 13.7334L17.0819 13.4L15.9486 13.7334C15.7986 13.775 15.6486 13.7334 15.5402 13.625C15.4319 13.5167 15.3902 13.3584 15.4319 13.2167L15.7652 12.0834L15.4319 10.95C15.3902 10.8 15.4319 10.6417 15.5402 10.5417C15.6486 10.4417 15.8069 10.3917 15.9486 10.4334L17.0819 10.7667L18.2152 10.4334C18.3569 10.3917 18.5152 10.4334 18.6236 10.5417C18.7319 10.65 18.7736 10.8084 18.7319 10.95L18.3986 12.0834L18.7319 13.2167C18.7736 13.3667 18.7319 13.525 18.6236 13.625C18.5486 13.7084 18.4402 13.75 18.3319 13.75ZM17.0819 12.55C17.1236 12.55 17.1569 12.5584 17.1986 12.5667L17.7152 12.7167L17.5652 12.2C17.5402 12.125 17.5402 12.0417 17.5652 11.9667L17.7152 11.45L17.1986 11.6C17.1236 11.625 17.0402 11.625 16.9652 11.6L16.4486 11.45L16.5986 11.9667C16.6236 12.0417 16.6236 12.125 16.5986 12.2L16.4486 12.7167L16.9652 12.5667C17.0069 12.5584 17.0402 12.55 17.0819 12.55Z" fill="#727272"/>
</svg>
