<svg width="35" height="34" viewBox="0 0 35 34" fill="none" xmlns="http://www.w3.org/2000/svg">
<g filter="url(#filter0_d_4262_20863)">
<path d="M18.3573 19.5002H10.8323C9.31564 19.5002 8.34898 17.8752 9.08231 16.5419L11.024 13.0085L12.8406 9.7002C13.599 8.3252 15.5823 8.3252 16.3406 9.7002L18.1656 13.0085L19.0406 14.6002L20.1073 16.5419C20.8406 17.8752 19.874 19.5002 18.3573 19.5002Z" fill="#F1601D"/>
<path d="M26.041 20.3335C26.041 23.3251 23.616 25.7501 20.6243 25.7501C18.0827 25.7501 15.9577 24.0085 15.366 21.6418C15.3077 21.3918 15.4993 21.1668 15.7577 21.1668H18.8993C20.0577 21.1668 21.1077 20.5668 21.6993 19.5751C22.2827 18.5751 22.3077 17.3751 21.741 16.3585L21.3243 15.5918C21.166 15.3085 21.391 14.9668 21.7077 15.0251C24.1743 15.5251 26.041 17.7085 26.041 20.3335Z" fill="#F1601D"/>
</g>
<defs>
<filter id="filter0_d_4262_20863" x="-0.833984" y="-1" width="36" height="36" filterUnits="userSpaceOnUse" color-interpolation-filters="sRGB">
<feFlood flood-opacity="0" result="BackgroundImageFix"/>
<feColorMatrix in="SourceAlpha" type="matrix" values="0 0 0 0 0 0 0 0 0 0 0 0 0 0 0 0 0 0 127 0" result="hardAlpha"/>
<feOffset/>
<feGaussianBlur stdDeviation="4"/>
<feComposite in2="hardAlpha" operator="out"/>
<feColorMatrix type="matrix" values="0 0 0 0 0.945098 0 0 0 0 0.376471 0 0 0 0 0.113725 0 0 0 0.64 0"/>
<feBlend mode="normal" in2="BackgroundImageFix" result="effect1_dropShadow_4262_20863"/>
<feBlend mode="normal" in="SourceGraphic" in2="effect1_dropShadow_4262_20863" result="shape"/>
</filter>
</defs>
</svg>
