
<svg width="21" height="20" viewBox="0 0 21 20" fill="none" xmlns="http://www.w3.org/2000/svg">
<path d="M7.66667 8.33333C8.58714 8.33333 9.33333 7.58714 9.33333 6.66667C9.33333 5.74619 8.58714 5 7.66667 5C6.74619 5 6 5.74619 6 6.66667C6 7.58714 6.74619 8.33333 7.66667 8.33333Z" stroke="white" stroke-width="1.5" stroke-linecap="round" stroke-linejoin="round"/>
<path d="M11.0007 1.6665H7.66732C3.50065 1.6665 1.83398 3.33317 1.83398 7.49984V12.4998C1.83398 16.6665 3.50065 18.3332 7.66732 18.3332H12.6673C16.834 18.3332 18.5007 16.6665 18.5007 12.4998V8.33317" stroke="white" stroke-width="1.5" stroke-linecap="round" stroke-linejoin="round"/>
<path d="M13.292 4.1665H17.8753" stroke="white" stroke-width="1.5" stroke-linecap="round"/>
<path d="M15.584 6.45833V1.875" stroke="white" stroke-width="1.5" stroke-linecap="round"/>
<path d="M2.3916 15.7918L6.49993 13.0335C7.15827 12.5918 8.10827 12.6418 8.69993 13.1501L8.97493 13.3918C9.62493 13.9501 10.6749 13.9501 11.3249 13.3918L14.7916 10.4168C15.4416 9.85846 16.4916 9.85846 17.1416 10.4168L18.4999 11.5835" stroke="white" stroke-width="1.5" stroke-linecap="round" stroke-linejoin="round"/>
</svg>
