<svg width="32" height="32" viewBox="0 0 32 32" fill="none" xmlns="http://www.w3.org/2000/svg">
<path d="M28.0932 6.97317C25.9466 6.75984 23.7999 6.59984 21.6399 6.47984V6.4665L21.3465 4.73317C21.1465 3.5065 20.8532 1.6665 17.7332 1.6665H14.2399C11.1332 1.6665 10.8399 3.4265 10.6266 4.71984L10.3466 6.4265C9.10655 6.5065 7.86655 6.5865 6.62655 6.7065L3.90655 6.97317C3.34655 7.0265 2.94655 7.51984 2.99988 8.0665C3.05322 8.61317 3.53322 9.01317 4.09322 8.95984L6.81322 8.69317C13.7999 7.99984 20.8399 8.2665 27.9066 8.97317C27.9466 8.97317 27.9732 8.97317 28.0132 8.97317C28.5199 8.97317 28.9599 8.5865 29.0132 8.0665C29.0532 7.51984 28.6532 7.0265 28.0932 6.97317Z" fill="white"/>
<path d="M25.6399 10.8532C25.3199 10.5198 24.8799 10.3332 24.4266 10.3332H7.57322C7.11989 10.3332 6.66656 10.5198 6.35989 10.8532C6.05322 11.1865 5.87989 11.6398 5.90656 12.1065L6.73322 25.7865C6.87989 27.8132 7.06656 30.3465 11.7199 30.3465H20.2799C24.9332 30.3465 25.1199 27.8265 25.2666 25.7865L26.0932 12.1198C26.1199 11.6398 25.9466 11.1865 25.6399 10.8532ZM18.2132 23.6665H13.7732C13.2266 23.6665 12.7732 23.2132 12.7732 22.6665C12.7732 22.1198 13.2266 21.6665 13.7732 21.6665H18.2132C18.7599 21.6665 19.2132 22.1198 19.2132 22.6665C19.2132 23.2132 18.7599 23.6665 18.2132 23.6665ZM19.3332 18.3332H12.6666C12.1199 18.3332 11.6666 17.8798 11.6666 17.3332C11.6666 16.7865 12.1199 16.3332 12.6666 16.3332H19.3332C19.8799 16.3332 20.3332 16.7865 20.3332 17.3332C20.3332 17.8798 19.8799 18.3332 19.3332 18.3332Z" fill="white"/>
</svg>
