<svg width="32" height="32" viewBox="0 0 32 32" fill="none" xmlns="http://www.w3.org/2000/svg">
<path d="M28 29.3335H4C3.45333 29.3335 3 28.8802 3 28.3335C3 27.7868 3.45333 27.3335 4 27.3335H28C28.5467 27.3335 29 27.7868 29 28.3335C29 28.8802 28.5467 29.3335 28 29.3335Z" fill="white"/>
<path d="M25.3598 4.63988C22.7731 2.05322 20.2398 1.98655 17.5864 4.63988L15.9731 6.25322C15.8398 6.38655 15.7864 6.59988 15.8398 6.78655C16.8531 10.3199 19.6798 13.1466 23.2131 14.1599C23.2664 14.1732 23.3198 14.1866 23.3731 14.1866C23.5198 14.1866 23.6531 14.1332 23.7598 14.0266L25.3598 12.4132C26.6798 11.1066 27.3198 9.83988 27.3198 8.55988C27.3331 7.23988 26.6931 5.95988 25.3598 4.63988Z" fill="white"/>
<path d="M20.8131 15.3736C20.4264 15.1869 20.0531 15.0002 19.6931 14.7869C19.3998 14.6136 19.1198 14.4269 18.8398 14.2269C18.6131 14.0802 18.3464 13.8669 18.0931 13.6536C18.0664 13.6402 17.9731 13.5602 17.8664 13.4536C17.4264 13.0802 16.9331 12.6002 16.4931 12.0669C16.4531 12.0402 16.3864 11.9469 16.2931 11.8269C16.1598 11.6669 15.9331 11.4002 15.7331 11.0936C15.5731 10.8936 15.3864 10.6002 15.2131 10.3069C14.9998 9.94689 14.8131 9.58689 14.6264 9.21356C14.5603 9.07183 14.4992 8.93178 14.4419 8.79399C14.302 8.45739 13.866 8.36067 13.6082 8.61842L5.78644 16.4402C5.61311 16.6136 5.45311 16.9469 5.41311 17.1736L4.69311 22.2802C4.55977 23.1869 4.81311 24.0402 5.37311 24.6136C5.85311 25.0802 6.51977 25.3336 7.23977 25.3336C7.39977 25.3336 7.55977 25.3202 7.71977 25.2936L12.8398 24.5736C13.0798 24.5336 13.4131 24.3736 13.5731 24.2002L21.3878 16.3856C21.6473 16.126 21.5489 15.6821 21.2097 15.5418C21.0807 15.4884 20.9492 15.4325 20.8131 15.3736Z" fill="white"/>
</svg>
