<svg width="32" height="32" viewBox="0 0 32 32" fill="none" xmlns="http://www.w3.org/2000/svg">
<path d="M15.9998 2.6665C12.5065 2.6665 9.6665 5.5065 9.6665 8.99984C9.6665 12.4265 12.3465 15.1998 15.8398 15.3198C15.9465 15.3065 16.0532 15.3065 16.1332 15.3198C16.1598 15.3198 16.1732 15.3198 16.1998 15.3198C16.2132 15.3198 16.2132 15.3198 16.2265 15.3198C19.6398 15.1998 22.3198 12.4265 22.3332 8.99984C22.3332 5.5065 19.4932 2.6665 15.9998 2.6665Z" fill="white"/>
<path d="M22.7733 18.8668C19.0533 16.3868 12.9866 16.3868 9.23995 18.8668C7.54661 20.0002 6.61328 21.5335 6.61328 23.1735C6.61328 24.8135 7.54661 26.3335 9.22661 27.4535C11.0933 28.7068 13.5466 29.3335 15.9999 29.3335C18.4533 29.3335 20.9066 28.7068 22.7733 27.4535C24.4533 26.3202 25.3866 24.8002 25.3866 23.1468C25.3733 21.5068 24.4533 19.9868 22.7733 18.8668Z" fill="white"/>
</svg>
