<svg width="18" height="18" viewBox="0 0 18 18" fill="none" xmlns="http://www.w3.org/2000/svg">
<path d="M14.5385 0H3.46154C1.55285 0 0 1.55285 0 3.46154V14.5385C0 16.4472 1.55285 18 3.46154 18H14.5385C16.4472 18 18 16.4472 18 14.5385V3.46154C18 1.55285 16.4472 0 14.5385 0ZM16.6154 14.5385C16.6154 15.6835 15.6835 16.6154 14.5385 16.6154H3.46154C2.31646 16.6154 1.38462 15.6835 1.38462 14.5385V3.46154C1.38462 2.31646 2.31646 1.38462 3.46154 1.38462H14.5385C15.6835 1.38462 16.6154 2.31646 16.6154 3.46154V14.5385Z" fill="#C1C1C1"/>
<path d="M8.64641 8.3746L8.99997 8.72815L9.35352 8.3746L12.3256 5.40252C12.401 5.32709 12.522 5.32709 12.5974 5.40252L12.8803 5.11968L12.5974 5.40252C12.6728 5.47795 12.6728 5.59891 12.5974 5.67434L12.8724 5.94932L12.5974 5.67434L9.62534 8.64641L9.27178 8.99997L9.62534 9.35352L12.5974 12.3256C12.6728 12.401 12.6728 12.522 12.5974 12.5974C12.5597 12.6351 12.5112 12.6538 12.4615 12.6538C12.4118 12.6538 12.3633 12.6351 12.3256 12.5974L9.35352 9.62534L8.99997 9.27178L8.64641 9.62534L5.67434 12.5974C5.63665 12.6351 5.58815 12.6538 5.53843 12.6538C5.4887 12.6538 5.4402 12.6351 5.40252 12.5974C5.32709 12.522 5.32709 12.401 5.40252 12.3256L8.3746 9.35352L8.72815 8.99997L8.3746 8.64641L5.40252 5.67434C5.32709 5.59891 5.32709 5.47795 5.40252 5.40252C5.47795 5.32709 5.59891 5.32709 5.67434 5.40252L8.64641 8.3746Z" stroke="#C1C1C1"/>
</svg>
