<svg width="20" height="20" viewBox="0 0 20 20" fill="none" xmlns="http://www.w3.org/2000/svg">
<path d="M4.16681 18.2251C3.55015 18.2251 2.94181 17.9917 2.47515 17.5251C2.02515 17.0751 1.77515 16.4751 1.77515 15.8334C1.77515 15.1917 2.02515 14.5917 2.47515 14.1417L13.3085 3.3084C14.2418 2.37507 15.7585 2.37507 16.6918 3.3084C17.1418 3.7584 17.3918 4.3584 17.3918 5.00006C17.3918 5.64173 17.1418 6.24173 16.6918 6.69173L5.85848 17.5251C5.39181 17.9917 4.78348 18.2251 4.16681 18.2251ZM15.0001 3.8584C14.7085 3.8584 14.4168 3.96673 14.1918 4.19173L3.35848 15.0251C3.14181 15.2417 3.02515 15.5251 3.02515 15.8334C3.02515 16.1417 3.14181 16.4251 3.35848 16.6417C3.80015 17.0834 4.53348 17.0834 4.97515 16.6417L15.8085 5.8084C16.0251 5.59173 16.1418 5.3084 16.1418 5.00006C16.1418 4.69173 16.0251 4.4084 15.8085 4.19173C15.5835 3.96673 15.2918 3.8584 15.0001 3.8584Z" fill="#C1C1C1"/>
<path d="M15.0082 8.11657C14.8498 8.11657 14.6915 8.05824 14.5665 7.93324L12.0665 5.43324C11.8248 5.19157 11.8248 4.79157 12.0665 4.5499C12.3082 4.30824 12.7082 4.30824 12.9498 4.5499L15.4498 7.0499C15.6915 7.29157 15.6915 7.69157 15.4498 7.93324C15.3248 8.05824 15.1665 8.11657 15.0082 8.11657Z" fill="#C1C1C1"/>
<path d="M8.33313 4.58329C8.29147 4.58329 8.25813 4.57496 8.21646 4.56663L7.08313 4.23329L5.9498 4.56663C5.7998 4.60829 5.64147 4.56663 5.54147 4.45829C5.43313 4.34996 5.39147 4.19996 5.43313 4.04996L5.76647 2.91663L5.43313 1.78329C5.39147 1.63329 5.43313 1.47496 5.54147 1.37496C5.6498 1.26663 5.80813 1.22496 5.9498 1.26663L7.08313 1.59996L8.21646 1.26663C8.36646 1.22496 8.51647 1.26663 8.6248 1.37496C8.73313 1.48329 8.7748 1.64163 8.73313 1.78329L8.3998 2.91663L8.73313 4.04996C8.7748 4.19996 8.73313 4.35829 8.6248 4.45829C8.5498 4.54163 8.44147 4.58329 8.33313 4.58329ZM7.08313 3.38329C7.1248 3.38329 7.15813 3.39163 7.1998 3.39996L7.71647 3.54996L7.56647 3.03329C7.54147 2.95829 7.54147 2.87496 7.56647 2.79996L7.71647 2.28329L7.1998 2.43329C7.1248 2.45829 7.04146 2.45829 6.96646 2.43329L6.4498 2.28329L6.5998 2.79996C6.6248 2.87496 6.6248 2.95829 6.5998 3.03329L6.4498 3.54996L6.96646 3.39996C7.00813 3.39163 7.04147 3.38329 7.08313 3.38329Z" fill="#C1C1C1"/>
<path d="M4.99988 9.58329C4.95821 9.58329 4.92488 9.57496 4.88321 9.56663L3.74988 9.23329L2.61655 9.56663C2.46655 9.60829 2.31655 9.56663 2.20821 9.45829C2.09988 9.34996 2.05821 9.19163 2.09988 9.04996L2.43321 7.91663L2.09988 6.78329C2.05821 6.63329 2.09988 6.47496 2.20821 6.37496C2.31655 6.27496 2.47488 6.22496 2.61655 6.26663L3.74988 6.59996L4.88321 6.26663C5.02488 6.22496 5.18321 6.26663 5.29155 6.37496C5.39988 6.48329 5.44155 6.64163 5.39988 6.78329L5.06655 7.91663L5.39988 9.04996C5.44155 9.19996 5.39988 9.35829 5.29155 9.45829C5.21655 9.54163 5.10821 9.58329 4.99988 9.58329ZM3.74988 8.38329C3.79155 8.38329 3.82488 8.39163 3.86655 8.39996L4.38321 8.54996L4.23321 8.03329C4.20821 7.95829 4.20821 7.87496 4.23321 7.79996L4.38321 7.28329L3.86655 7.43329C3.79155 7.45829 3.70821 7.45829 3.63321 7.43329L3.11655 7.28329L3.26655 7.79996C3.29155 7.87496 3.29155 7.95829 3.26655 8.03329L3.11655 8.54996L3.63321 8.39996C3.67488 8.39163 3.70821 8.38329 3.74988 8.38329Z" fill="#C1C1C1"/>
<path d="M17.4999 13.75C17.4582 13.75 17.4249 13.7417 17.3832 13.7334L16.2499 13.4L15.1165 13.7334C14.9665 13.775 14.8165 13.7334 14.7082 13.625C14.5999 13.5167 14.5582 13.3584 14.5999 13.2167L14.9332 12.0834L14.5999 10.95C14.5582 10.8 14.5999 10.6417 14.7082 10.5417C14.8165 10.4417 14.9749 10.3917 15.1165 10.4334L16.2499 10.7667L17.3832 10.4334C17.5249 10.3917 17.6832 10.4334 17.7915 10.5417C17.8999 10.65 17.9415 10.8084 17.8999 10.95L17.5665 12.0834L17.8999 13.2167C17.9415 13.3667 17.8999 13.525 17.7915 13.625C17.7165 13.7084 17.6082 13.75 17.4999 13.75ZM16.2499 12.55C16.2915 12.55 16.3249 12.5584 16.3665 12.5667L16.8832 12.7167L16.7332 12.2C16.7082 12.125 16.7082 12.0417 16.7332 11.9667L16.8832 11.45L16.3665 11.6C16.2915 11.625 16.2082 11.625 16.1332 11.6L15.6165 11.45L15.7665 11.9667C15.7915 12.0417 15.7915 12.125 15.7665 12.2L15.6165 12.7167L16.1332 12.5667C16.1749 12.5584 16.2082 12.55 16.2499 12.55Z" fill="#C1C1C1"/>
</svg>
