<svg width="18" height="18" viewBox="0 0 18 18" fill="none" xmlns="http://www.w3.org/2000/svg">
<path d="M10.0725 11.8124H3.30003C2.46003 11.8124 1.69503 11.3774 1.26753 10.6499C0.840027 9.92245 0.825027 9.05243 1.23003 8.30993L4.61253 2.15244C5.03253 1.38744 5.80503 0.929932 6.68253 0.929932C7.56003 0.929932 8.33253 1.38744 8.75253 2.15244L12.1425 8.30993C12.5475 9.04493 12.5325 9.92245 12.105 10.6499C11.6775 11.3774 10.9125 11.8124 10.0725 11.8124ZM6.68253 2.06244C6.22503 2.06244 5.82003 2.30244 5.60253 2.69994L2.22003 8.85744C2.01003 9.24744 2.01753 9.69744 2.23503 10.0799C2.46003 10.4624 2.85753 10.6874 3.30003 10.6874H10.0725C10.515 10.6874 10.9125 10.4624 11.1375 10.0799C11.3625 9.69744 11.37 9.24744 11.1525 8.85744L7.76253 2.69994C7.54503 2.30244 7.14003 2.06244 6.68253 2.06244Z" fill="#C1C1C1"/>
<path d="M11.625 17.0625C8.625 17.0625 6.1875 14.625 6.1875 11.625C6.1875 11.49 6.195 11.355 6.2025 11.22C6.2175 10.92 6.465 10.6875 6.765 10.6875H10.0725C10.515 10.6875 10.9125 10.4625 11.1375 10.08C11.3625 9.6975 11.37 9.2475 11.1525 8.8575L10.1925 7.11001C10.1025 6.95251 10.1025 6.76499 10.1775 6.59999C10.2525 6.43499 10.4025 6.3225 10.575 6.285C10.9125 6.2175 11.265 6.1875 11.625 6.1875C14.625 6.1875 17.0625 8.625 17.0625 11.625C17.0625 14.625 14.625 17.0625 11.625 17.0625ZM7.32 11.8125C7.4175 14.1075 9.315 15.9375 11.625 15.9375C14.0025 15.9375 15.9375 14.0025 15.9375 11.625C15.9375 9.2475 14.0025 7.3125 11.625 7.3125C11.61 7.3125 11.6025 7.3125 11.5875 7.3125L12.1425 8.3175C12.5475 9.0525 12.5325 9.92999 12.105 10.6575C11.6775 11.385 10.92 11.82 10.0725 11.82H7.32V11.8125Z" fill="#C1C1C1"/>
</svg>
