<svg width="20" height="20" viewBox="0 0 20 20" fill="none" xmlns="http://www.w3.org/2000/svg">
<path d="M13.2 18.9584H6.79995C4.56662 18.9584 3.54995 18.1251 3.09995 17.4334C2.44162 16.4167 2.46662 15.0251 3.17495 13.4084L6.36662 6.15841C5.92495 6.04175 5.51662 5.80841 5.19162 5.48341C4.71662 5.00008 4.43329 4.33341 4.43329 3.64175C4.43329 2.20841 5.59995 1.04175 7.03329 1.04175H12.9583C13.65 1.04175 14.3083 1.31675 14.8 1.80841C15.45 2.45841 15.7083 3.38341 15.4916 4.27508C15.275 5.16675 14.5416 5.87508 13.6416 6.13342L16.825 13.4167C17.525 15.0251 17.55 16.4167 16.8833 17.4334C16.4333 18.1251 15.4166 18.9584 13.2 18.9584ZM7.03329 2.29175C6.29162 2.29175 5.68329 2.90008 5.68329 3.64175C5.68329 4.00008 5.83329 4.35008 6.07495 4.60008C6.32495 4.85008 6.67495 4.99175 7.03329 4.99175H7.28329C7.49162 4.99175 7.69162 5.10008 7.80829 5.27508C7.92495 5.45008 7.94162 5.67508 7.85829 5.86675L4.31662 13.9084C3.79162 15.1084 3.72495 16.1167 4.14162 16.7501C4.65829 17.5417 5.86662 17.7084 6.79162 17.7084H13.1916C14.1083 17.7084 15.3083 17.5417 15.8333 16.7501C16.25 16.1084 16.1916 15.1084 15.675 13.9167L12.1666 5.86675C12.0833 5.67508 12.1 5.45008 12.2166 5.27508C12.3333 5.10008 12.525 4.99175 12.7416 4.99175H12.875C13.5416 4.99175 14.1416 4.56675 14.2833 3.97508C14.4 3.50008 14.2666 3.03341 13.925 2.69175C13.6666 2.43341 13.325 2.29175 12.9666 2.29175H7.03329Z" fill="#C1C1C1"/>
<path d="M11.5335 12.5334C10.9835 12.5334 10.3919 12.4584 9.80021 12.2584C7.43355 11.4668 4.99188 11.5501 4.96688 11.5501C4.63355 11.6001 4.33355 11.2918 4.31688 10.9501C4.30022 10.6084 4.57522 10.3168 4.91688 10.3001C5.02522 10.2918 7.61688 10.2084 10.1919 11.0668C12.3585 11.7918 14.4835 10.4168 14.5085 10.4001C14.7919 10.2084 15.1835 10.2918 15.3752 10.5751C15.5669 10.8584 15.4919 11.2501 15.2002 11.4418C15.1252 11.5001 13.5419 12.5334 11.5335 12.5334Z" fill="#C1C1C1"/>
</svg>
