<svg width="623" height="622" viewBox="0 0 623 622" fill="none" xmlns="http://www.w3.org/2000/svg">
<path d="M537.295 194.414C538.889 195.664 553.673 191.289 570.77 187.6C579.119 186.063 587.358 183.975 595.431 181.349C605.496 177.255 604.808 178.036 611.872 175.41C617.029 173.472 611.466 193.82 608.746 202.322C602.553 219.717 593.958 236.161 583.21 251.175C577.834 258.583 571.708 265.585 571.708 265.585C568.582 269.21 565.769 272.18 563.894 274.086C563.894 274.086 561.081 276.993 558.236 279.712C548.484 289.089 500.381 317.595 495.443 318.97C494.38 319.283 494.255 319.47 494.942 319.595C500.412 320.502 556.486 316.157 569.957 319.595C572.645 320.283 569.52 325.846 566.488 329.847C564.785 332.042 562.947 334.13 560.987 336.098C537.357 357.697 507.57 371.324 478.033 387.359H477.845L477.126 387.765C474.282 389.047 471.375 390.266 466.999 392.172C464.624 393.204 464.655 398.424 465.374 404.362C465.843 406.957 466.312 409.551 466.812 412.176C471.633 449.658 482.761 486.054 499.725 519.823C501.287 523.511 502.85 527.136 504.569 530.762C511.135 545.352 518.991 559.327 528.043 572.52C530.168 575.646 532.325 578.334 534.544 581.116C541.228 589.354 548.623 596.989 556.642 603.933C560.143 607.059 562.331 609.684 561.737 611.184C559.768 616.248 526.449 609.559 493.973 598.87C471.647 591.32 449.898 582.158 428.898 571.458C400.049 557.361 380.732 547.922 357.009 531.075C333.285 514.228 319.095 499.819 296.747 477.658C296.747 477.658 261.834 442.807 239.923 410.551C237.36 406.8 234.953 403.049 234.953 403.049C234.953 403.049 232.672 399.517 230.452 395.892C224.482 386.202 199.509 338.63 188.35 303.467C195.366 303.823 202.392 302.999 209.136 301.029C212.867 299.983 216.531 298.71 220.107 297.216C252.238 283.87 282.369 261.959 300.873 234.703C302.654 232.14 304.498 229.421 306.311 226.452C310.36 219.781 313.662 212.685 316.157 205.291C318.324 198.809 319.853 192.13 320.72 185.35C321.127 182.224 321.408 179.099 321.595 176.286C321.595 168.472 321.595 160.658 321.345 152.687C321.345 148.78 321.033 144.873 320.783 141.029C320.199 129.082 317.6 117.32 313.094 106.24C311.629 102.566 309.938 98.9852 308.03 95.5195C291.496 60.1062 250.394 46.416 216.137 41.415C213.011 41.0711 209.886 40.7899 206.76 40.6648C200.449 40.3365 194.123 40.3991 187.819 40.8524C183.943 41.1962 180.192 41.6338 176.879 42.0714L169.44 41.2587C171.555 30.6119 175.579 20.4356 181.318 11.2216C181.479 10.9747 181.572 10.6891 181.586 10.3944C181.6 10.0997 181.535 9.80653 181.398 9.54523C181.261 9.28393 181.057 9.06394 180.807 8.90805C180.556 8.75216 180.268 8.66604 179.974 8.65852L183.099 8.4397C241.423 5.09529 297.091 25.9119 330.285 76.2031C332.223 79.1725 334.129 82.2356 335.942 85.4238C337.755 88.6119 339.443 91.2061 341.006 94.1755C342.543 97.1249 343.931 100.15 345.163 103.24C346.694 106.678 348.069 110.147 349.32 113.679C350.57 117.211 352.445 121.118 353.821 124.932C358.415 125.244 362.947 125.526 367.48 125.744C372.012 125.963 376.481 126.119 380.92 126.213C384.045 126.213 386.858 126.213 389.828 126.213C400.283 126.611 410.752 125.983 421.084 124.338C424.585 123.775 428.054 123.15 431.492 122.4C450.879 117.018 469.757 109.948 487.91 101.271C491.473 99.5516 495.005 97.7699 498.474 95.8945C531.356 81.0791 558.736 56.4492 580.96 28.6624C582.304 26.5057 583.554 24.4742 584.679 22.7864C586.929 19.3482 588.711 17.1914 590.243 17.629C591.274 17.9103 591.93 19.4732 592.431 22.1925C592.931 24.9118 593.306 28.9437 593.775 34.1948C593.775 37.7893 593.775 41.3837 594.025 44.9469C594.275 48.5101 594.025 52.1985 594.025 55.7929C591.618 92.0501 588.899 127.682 566.738 157.188C564.863 160.689 562.893 164.158 560.924 167.628C558.562 171.253 555.884 174.663 552.923 177.817L550.422 180.536L547.797 183.256L545.265 185.787C542.139 188.913 539.232 191.632 538.232 192.445C537.232 193.258 536.951 194.07 537.295 194.414Z" fill="#5199FF"/>
<path d="M165.533 180.349C164.94 173.035 164.596 165.909 164.596 159.001C164.596 156.157 164.596 153 164.408 149.406C164.221 145.811 164.408 141.81 164.221 137.309C164.221 131.621 164.221 128.808 164.221 126.307C164.221 112.961 164.033 99.302 164.439 86.2057C164.439 81.8298 164.752 77.5477 165.002 73.3281C165.894 62.5654 167.376 51.8596 169.44 41.2592L176.786 42.0719C180.099 41.6343 183.85 41.1967 187.725 40.8529C194.029 40.3996 200.355 40.337 206.667 40.6653C209.792 40.6653 212.918 41.0716 216.044 41.4155C250.425 46.4165 291.402 60.1692 307.937 95.52C309.844 98.9857 311.535 102.566 313 106.241C317.506 117.32 320.106 129.082 320.689 141.029C320.939 144.874 321.158 148.781 321.252 152.688C321.502 160.564 321.502 168.472 321.502 176.286C321.314 179.224 321.033 182.256 320.627 185.35C319.759 192.13 318.231 198.809 316.063 205.292C313.568 212.685 310.267 219.782 306.218 226.452C304.405 229.578 302.561 232.141 300.779 234.704C282.275 261.897 252.144 283.807 220.013 297.216C216.437 298.71 212.773 299.983 209.042 301.03C202.299 303 195.273 303.824 188.257 303.468C187.538 301.248 186.881 299.029 186.288 296.935C185.694 294.841 184.506 290.403 183.162 285.214C179.474 271.18 178.067 264.554 177.505 261.959C177.192 260.428 176.723 258.209 175.879 253.833C175.223 250.395 174.504 246.456 173.691 241.955C170.941 222.545 167.253 200.822 165.533 180.349Z" fill="#E5F0FF"/>
<path d="M497.594 318.094C380.094 357.594 290.594 306.094 190.594 306.094C220.594 389.094 338.993 580.294 556.594 609.094C508.594 568.294 474.927 449.094 464.094 394.594C520.594 368.094 573.594 324.094 566.094 318.094C560.094 313.294 517.927 316.094 497.594 318.094Z" fill="#5199FF"/>
<path d="M186.287 296.934C186.881 299.028 187.537 301.247 188.256 303.467C183.803 303.184 179.408 302.301 175.191 300.841C171.2 299.863 167.299 298.546 163.532 296.903C144.779 288.839 128.744 274.304 114.804 258.395C112.772 255.957 110.803 253.488 108.928 250.987C99.5113 238.583 91.7858 224.982 85.9545 210.542C84.6387 206.14 83.5949 201.662 82.8289 197.133V196.789C108.396 184.474 135.964 177.66 165.752 180.348C167.471 200.821 171.159 222.388 173.909 241.954C174.722 246.455 175.441 250.393 176.097 253.832C176.941 258.208 177.41 260.427 177.723 261.958C178.285 264.552 179.692 271.335 183.38 285.213C184.505 290.402 185.787 295.09 186.287 296.934Z" fill="#1771F1"/>
<path d="M186.287 296.934C186.881 299.028 187.537 301.247 188.256 303.467C183.803 303.184 179.408 302.301 175.191 300.841C171.2 299.863 167.299 298.546 163.532 296.903C144.779 288.839 128.744 274.304 114.804 258.395C112.772 255.957 110.803 253.488 108.928 250.987C99.5113 238.583 91.7858 224.982 85.9545 210.542C84.6387 206.14 83.5949 201.662 82.8289 197.133V196.789C108.396 184.474 135.964 177.66 165.752 180.348C167.471 200.821 171.159 222.388 173.909 241.954C174.722 246.455 175.441 250.393 176.097 253.832C176.941 258.208 177.41 260.427 177.723 261.958C178.285 264.552 179.692 271.335 183.38 285.213C184.505 290.402 185.787 295.09 186.287 296.934Z" fill="#1771F1"/>
<path d="M188.256 303.467C196.593 336.595 234.859 403.05 234.859 403.05C234.859 403.05 237.265 406.8 239.828 410.551C261.708 442.808 296.652 477.658 296.652 477.658C319 499.944 333.566 514.447 356.914 531.075C380.263 547.703 399.954 557.362 428.803 571.458C449.803 582.158 471.552 591.32 493.879 598.87C526.354 609.559 559.673 616.248 561.642 611.185C562.236 609.684 560.048 607.184 556.548 603.933C548.528 596.989 541.134 589.354 534.449 581.116C532.23 578.334 530.074 575.49 527.948 572.521C518.896 559.328 511.041 545.353 504.475 530.762C502.787 527.137 501.193 523.511 499.63 519.823C482.666 486.054 471.538 449.658 466.717 412.177C466.217 409.551 465.748 406.957 465.279 404.362C464.561 398.361 464.529 393.204 466.905 392.172C471.281 390.266 474.187 389.047 477.032 387.765L477.751 387.359" stroke="#3977FE" stroke-width="16.4408" stroke-miterlimit="10" stroke-linecap="round"/>
<path d="M188.256 303.467C196.593 336.595 234.859 403.05 234.859 403.05C234.859 403.05 237.265 406.8 239.828 410.551C261.708 442.808 296.652 477.658 296.652 477.658C319 499.944 333.566 514.447 356.914 531.075C380.263 547.703 399.954 557.362 428.803 571.458C449.803 582.158 471.552 591.32 493.879 598.87C526.354 609.559 559.673 616.248 561.642 611.185C562.236 609.684 560.048 607.184 556.548 603.933C548.528 596.989 541.134 589.354 534.449 581.116C532.23 578.334 530.074 575.49 527.948 572.521C518.896 559.328 511.041 545.353 504.475 530.762C502.787 527.137 501.193 523.511 499.63 519.823C482.666 486.054 471.538 449.658 466.717 412.177C466.217 409.551 465.748 406.957 465.279 404.362C464.561 398.361 464.529 393.204 466.905 392.172C471.281 390.266 474.187 389.047 477.032 387.765L477.751 387.359" stroke="black" stroke-opacity="0.4" stroke-width="16.4408" stroke-miterlimit="10" stroke-linecap="round"/>
<path d="M179.973 8.72119C180.268 8.72871 180.556 8.81484 180.806 8.97072C181.057 9.12661 181.261 9.34661 181.398 9.6079C181.535 9.8692 181.6 10.1623 181.586 10.457C181.572 10.7517 181.479 11.0371 181.317 11.284C175.579 20.4981 171.555 30.6746 169.44 41.3214C167.378 51.9012 165.896 62.5859 165.002 73.3277C164.752 77.5473 164.564 81.8294 164.439 86.2053C164.033 99.3016 164.126 112.961 164.22 126.307C164.22 128.808 164.22 131.62 164.22 137.309C164.22 141.81 164.22 145.811 164.408 149.405C164.595 153 164.408 156.157 164.595 159.001C164.595 165.909 164.939 173.035 165.533 180.349C135.59 177.661 108.178 184.475 82.6103 196.79C76.8591 199.54 71.2017 202.572 65.6381 205.823C62.3458 207.636 59.0952 209.48 55.8862 211.355C53.2294 212.949 50.5726 214.481 47.9471 216.231C45.3216 217.981 42.7586 219.638 40.1956 221.388C35.7572 223.608 30.2874 229.077 25.2551 232.672C22.8171 234.672 20.4416 236.766 18.0662 238.923C15.6907 241.08 13.3777 243.268 11.1273 245.549C9.56448 244.799 9.00187 244.049 8.59554 241.174C8.59554 229.328 8.25172 217.356 8.18921 205.354C8.18921 201.322 8.18921 197.321 8.18921 193.289C8.18921 155.156 16.5034 116.805 36.5073 84.7674C37.9451 82.5482 39.633 80.2041 41.2895 77.7973C42.9461 75.3906 44.9778 72.8588 47.0719 70.2958C55.1787 61.1434 64.0569 52.7044 73.6085 45.072C76.7341 42.5402 80.1098 40.1024 83.4542 37.7581C111.585 18.8169 145.279 11.6904 179.755 8.75229L179.973 8.72119Z" fill="#1771F1"/>
<path d="M176.785 42.1344C180.098 41.6968 183.849 41.2592 187.725 40.9154C194.029 40.4621 200.354 40.3995 206.666 40.7278C209.792 40.7278 212.917 41.1341 216.043 41.478C250.425 46.479 291.402 60.2317 307.936 95.5825C309.843 99.0482 311.535 102.629 313 106.303C317.505 117.383 320.105 129.145 320.689 141.092C320.939 144.936 321.157 148.843 321.251 152.75C321.501 160.627 321.501 168.534 321.501 176.348C321.314 179.286 321.032 182.318 320.626 185.413C319.759 192.193 318.23 198.872 316.063 205.354C313.568 212.748 310.266 219.844 306.217 226.515C304.404 229.64 302.56 232.203 300.778 234.766C282.275 261.959 252.144 283.87 220.012 297.279C216.437 298.772 212.773 300.046 209.041 301.092C202.298 303.062 195.272 303.886 188.256 303.53C183.803 303.248 179.408 302.364 175.191 300.904C171.2 299.926 167.299 298.609 163.532 296.966C144.779 288.902 128.744 274.368 114.804 258.459C112.772 256.021 110.803 253.551 108.928 251.051C99.5113 238.647 91.7858 225.046 85.9545 210.605C84.6387 206.204 83.5949 201.726 82.8289 197.196" stroke="#3977FE" stroke-width="16.4408" stroke-miterlimit="10" stroke-linecap="round"/>
<path d="M176.785 42.1344C180.098 41.6968 183.849 41.2592 187.725 40.9154C194.029 40.4621 200.354 40.3995 206.666 40.7278C209.792 40.7278 212.917 41.1341 216.043 41.478C250.425 46.479 291.402 60.2317 307.936 95.5825C309.843 99.0482 311.535 102.629 313 106.303C317.505 117.383 320.105 129.145 320.689 141.092C320.939 144.936 321.157 148.843 321.251 152.75C321.501 160.627 321.501 168.534 321.501 176.348C321.314 179.286 321.032 182.318 320.626 185.413C319.759 192.193 318.23 198.872 316.063 205.354C313.568 212.748 310.266 219.844 306.217 226.515C304.404 229.64 302.56 232.203 300.778 234.766C282.275 261.959 252.144 283.87 220.012 297.279C216.437 298.772 212.773 300.046 209.041 301.092C202.298 303.062 195.272 303.886 188.256 303.53C183.803 303.248 179.408 302.364 175.191 300.904C171.2 299.926 167.299 298.609 163.532 296.966C144.779 288.902 128.744 274.368 114.804 258.459C112.772 256.021 110.803 253.551 108.928 251.051C99.5113 238.647 91.7858 225.046 85.9545 210.605C84.6387 206.204 83.5949 201.726 82.8289 197.196" stroke="black" stroke-opacity="0.4" stroke-width="16.4408" stroke-miterlimit="10" stroke-linecap="round"/>
<path d="M477.939 387.264C507.476 371.23 537.326 357.603 560.893 336.005C562.854 334.036 564.691 331.948 566.394 329.753C569.52 325.69 572.646 320.189 569.864 319.501C556.392 316.001 500.319 320.345 494.849 319.501C494.161 319.501 494.286 319.188 495.349 318.876" stroke="#3977FE" stroke-width="16.4408" stroke-miterlimit="10" stroke-linecap="round"/>
<path d="M477.939 387.264C507.476 371.23 537.326 357.603 560.893 336.005C562.854 334.036 564.691 331.948 566.394 329.753C569.52 325.69 572.646 320.189 569.864 319.501C556.392 316.001 500.319 320.345 494.849 319.501C494.161 319.501 494.286 319.188 495.349 318.876" stroke="black" stroke-opacity="0.4" stroke-width="16.4408" stroke-miterlimit="10" stroke-linecap="round"/>
<path d="M165.564 180.349C135.621 177.661 108.209 184.475 82.6415 196.79C76.8904 199.54 71.233 202.572 65.6694 205.823C62.3771 207.636 59.1264 209.48 55.9174 211.355C53.2607 212.949 50.6039 214.481 47.9784 216.231C45.3528 217.982 42.7898 219.638 40.2268 221.389C35.7884 223.608 30.3186 229.078 25.2863 232.672C22.8484 234.672 20.4729 236.767 18.0974 238.923C15.7219 241.08 13.409 243.268 11.1585 245.55C9.59573 244.799 9.03312 244.049 8.62679 241.174C8.62679 229.328 8.28297 217.356 8.22046 205.354C8.22046 201.322 8.22046 197.321 8.22046 193.289C8.22046 155.157 16.5346 116.805 36.5386 84.7676C37.9764 82.5484 39.6642 80.2042 41.3208 77.7975C42.9774 75.3908 45.009 72.8589 47.1032 70.2959C55.21 61.1435 64.0881 52.7045 73.6397 45.0721C76.7653 42.5404 80.141 40.1025 83.4854 37.7583C111.616 18.817 145.31 11.6905 179.786 8.75244C180.081 8.75996 180.368 8.84628 180.619 9.00216C180.869 9.15805 181.074 9.37786 181.211 9.63915C181.348 9.90045 181.412 10.1936 181.398 10.4883C181.384 10.783 181.291 11.0686 181.13 11.3155C175.391 20.5296 171.368 30.706 169.252 41.3528C167.254 51.9258 165.835 62.6 165.002 73.3279C164.752 77.5475 164.564 81.8296 164.439 86.2054C164.033 99.3018 164.126 112.961 164.22 126.307C164.22 128.808 164.22 131.621 164.22 137.309C164.22 141.81 164.22 145.811 164.408 149.405C164.595 153 164.408 156.157 164.595 159.001C164.595 165.909 164.939 173.035 165.533 180.349C167.252 200.822 170.94 222.389 173.691 241.955C174.504 246.456 175.222 250.394 175.879 253.833C176.723 258.208 177.192 260.428 177.504 261.959C178.067 264.553 179.473 271.336 183.161 285.214C184.505 290.402 185.787 295.091 186.287 296.935C186.787 298.779 187.537 301.248 188.256 303.467" stroke="#3977FE" stroke-width="16.4408" stroke-miterlimit="10" stroke-linecap="round"/>
<path d="M165.564 180.349C135.621 177.661 108.209 184.475 82.6415 196.79C76.8904 199.54 71.233 202.572 65.6694 205.823C62.3771 207.636 59.1264 209.48 55.9174 211.355C53.2607 212.949 50.6039 214.481 47.9784 216.231C45.3528 217.982 42.7898 219.638 40.2268 221.389C35.7884 223.608 30.3186 229.078 25.2863 232.672C22.8484 234.672 20.4729 236.767 18.0974 238.923C15.7219 241.08 13.409 243.268 11.1585 245.55C9.59573 244.799 9.03312 244.049 8.62679 241.174C8.62679 229.328 8.28297 217.356 8.22046 205.354C8.22046 201.322 8.22046 197.321 8.22046 193.289C8.22046 155.157 16.5346 116.805 36.5386 84.7676C37.9764 82.5484 39.6642 80.2042 41.3208 77.7975C42.9774 75.3908 45.009 72.8589 47.1032 70.2959C55.21 61.1435 64.0881 52.7045 73.6397 45.0721C76.7653 42.5404 80.141 40.1025 83.4854 37.7583C111.616 18.817 145.31 11.6905 179.786 8.75244C180.081 8.75996 180.368 8.84628 180.619 9.00216C180.869 9.15805 181.074 9.37786 181.211 9.63915C181.348 9.90045 181.412 10.1936 181.398 10.4883C181.384 10.783 181.291 11.0686 181.13 11.3155C175.391 20.5296 171.368 30.706 169.252 41.3528C167.254 51.9258 165.835 62.6 165.002 73.3279C164.752 77.5475 164.564 81.8296 164.439 86.2054C164.033 99.3018 164.126 112.961 164.22 126.307C164.22 128.808 164.22 131.621 164.22 137.309C164.22 141.81 164.22 145.811 164.408 149.405C164.595 153 164.408 156.157 164.595 159.001C164.595 165.909 164.939 173.035 165.533 180.349C167.252 200.822 170.94 222.389 173.691 241.955C174.504 246.456 175.222 250.394 175.879 253.833C176.723 258.208 177.192 260.428 177.504 261.959C178.067 264.553 179.473 271.336 183.161 285.214C184.505 290.402 185.787 295.091 186.287 296.935C186.787 298.779 187.537 301.248 188.256 303.467" stroke="black" stroke-opacity="0.4" stroke-width="16.4408" stroke-miterlimit="10" stroke-linecap="round"/>
<path d="M402.55 269.241C408.801 267.397 417.459 264.709 427.555 261.021C442.851 255.924 457.732 249.654 472.063 242.267C484.759 235.222 496.891 227.207 508.352 218.294C519.729 209.823 529.856 201.009 537.17 194.508C537.795 194.008 538.358 193.476 538.92 192.945" stroke="#3977FE" stroke-width="16.4408" stroke-miterlimit="10" stroke-linecap="round"/>
<path d="M402.55 269.241C408.801 267.397 417.459 264.709 427.555 261.021C442.851 255.924 457.732 249.654 472.063 242.267C484.759 235.222 496.891 227.207 508.352 218.294C519.729 209.823 529.856 201.009 537.17 194.508C537.795 194.008 538.358 193.476 538.92 192.945" stroke="black" stroke-opacity="0.4" stroke-width="16.4408" stroke-miterlimit="10" stroke-linecap="round"/>
<path d="M494.849 319.502C494.161 319.502 494.286 319.189 495.349 318.876C500.287 317.501 548.484 288.902 558.143 279.619C560.987 276.899 563.8 273.992 563.8 273.992C565.675 272.086 568.488 269.117 571.614 265.491C571.614 265.491 577.865 258.489 583.116 251.082C593.864 236.067 602.46 219.624 608.653 202.228C611.466 193.727 617.029 173.379 611.778 175.317C604.714 177.942 605.527 177.161 595.337 181.255C587.264 183.881 579.026 185.97 570.676 187.507C553.579 191.351 538.795 195.571 537.201 194.32C536.795 194.039 537.201 193.477 538.295 192.508C539.389 191.539 542.077 189.101 545.328 185.85L547.859 183.318L550.485 180.599L552.985 177.88C555.947 174.725 558.625 171.315 560.987 167.69C562.956 164.221 564.925 160.751 566.801 157.251C588.961 127.713 591.806 92.1126 594.087 55.8554C594.087 52.2609 594.087 48.6353 594.087 45.0096C594.087 41.3838 593.9 37.8519 593.837 34.2574C593.368 29.0064 592.993 25.0367 592.493 22.2549C591.993 19.4731 591.337 17.973 590.305 17.6917C588.774 17.2541 586.992 19.4106 584.742 22.8488C583.616 24.5366 582.366 26.5683 581.022 28.725C558.799 56.5118 531.419 81.1417 498.537 95.9571C495.068 97.8325 491.536 99.614 487.972 101.333C469.862 110.025 451.026 117.116 431.68 122.525C428.242 123.275 424.772 123.9 421.272 124.463C410.939 126.108 400.47 126.736 390.015 126.338C386.89 126.338 384.108 126.338 381.107 126.338C376.669 126.338 372.168 126.088 367.667 125.869C363.166 125.651 358.603 125.369 354.008 125.057C352.633 121.243 351.101 117.493 349.507 113.805C347.913 110.116 346.882 106.803 345.35 103.365C344.118 100.275 342.731 97.2499 341.193 94.3005C339.63 91.1749 338.068 88.4243 336.13 85.5488C334.192 82.6732 332.41 79.2975 330.472 76.3281C297.278 26.0369 241.611 5.22029 183.287 8.5647M393.422 334.536C399.673 334.692 407.581 334.692 416.833 334.192C427.886 333.613 438.896 332.392 449.808 330.535C453.371 329.91 462.529 327.597 480.72 323.127C485.69 321.877 491.285 320.314 494.848 319.408L496.348 319.001" stroke="#3977FE" stroke-width="16.4408" stroke-miterlimit="10" stroke-linecap="round"/>
<path d="M494.849 319.502C494.161 319.502 494.286 319.189 495.349 318.876C500.287 317.501 548.484 288.902 558.143 279.619C560.987 276.899 563.8 273.992 563.8 273.992C565.675 272.086 568.488 269.117 571.614 265.491C571.614 265.491 577.865 258.489 583.116 251.082C593.864 236.067 602.46 219.624 608.653 202.228C611.466 193.727 617.029 173.379 611.778 175.317C604.714 177.942 605.527 177.161 595.337 181.255C587.264 183.881 579.026 185.97 570.676 187.507C553.579 191.351 538.795 195.571 537.201 194.32C536.795 194.039 537.201 193.477 538.295 192.508C539.389 191.539 542.077 189.101 545.328 185.85L547.859 183.318L550.485 180.599L552.985 177.88C555.947 174.725 558.625 171.315 560.987 167.69C562.956 164.221 564.925 160.751 566.801 157.251C588.961 127.713 591.806 92.1126 594.087 55.8554C594.087 52.2609 594.087 48.6353 594.087 45.0096C594.087 41.3838 593.9 37.8519 593.837 34.2574C593.368 29.0064 592.993 25.0367 592.493 22.2549C591.993 19.4731 591.337 17.973 590.305 17.6917C588.774 17.2541 586.992 19.4106 584.742 22.8488C583.616 24.5366 582.366 26.5683 581.022 28.725C558.799 56.5118 531.419 81.1417 498.537 95.9571C495.068 97.8325 491.536 99.614 487.972 101.333C469.862 110.025 451.026 117.116 431.68 122.525C428.242 123.275 424.772 123.9 421.272 124.463C410.939 126.108 400.47 126.736 390.015 126.338C386.89 126.338 384.108 126.338 381.107 126.338C376.669 126.338 372.168 126.088 367.667 125.869C363.166 125.651 358.603 125.369 354.008 125.057C352.633 121.243 351.101 117.493 349.507 113.805C347.913 110.116 346.882 106.803 345.35 103.365C344.118 100.275 342.731 97.2499 341.193 94.3005C339.63 91.1749 338.068 88.4243 336.13 85.5488C334.192 82.6732 332.41 79.2975 330.472 76.3281C297.278 26.0369 241.611 5.22029 183.287 8.5647M393.422 334.536C399.673 334.692 407.581 334.692 416.833 334.192C427.886 333.613 438.896 332.392 449.808 330.535C453.371 329.91 462.529 327.597 480.72 323.127C485.69 321.877 491.285 320.314 494.848 319.408L496.348 319.001" stroke="black" stroke-opacity="0.4" stroke-width="16.4408" stroke-miterlimit="10" stroke-linecap="round"/>
<path d="M327.094 417.926C335.014 418.151 346.021 418.215 359.21 417.701C370.132 417.493 381.032 416.635 391.857 415.128C404.243 413.163 416.461 410.206 428.402 406.284C440.063 402.673 451.514 398.378 462.701 393.421C467.846 391.137 473.365 388.661 477.824 386.571H478.011C479.975 385.638 481.722 384.834 483.094 384.094" stroke="#3977FE" stroke-width="16.4408" stroke-miterlimit="10" stroke-linecap="round"/>
<path d="M327.094 417.926C335.014 418.151 346.021 418.215 359.21 417.701C370.132 417.493 381.032 416.635 391.857 415.128C404.243 413.163 416.461 410.206 428.402 406.284C440.063 402.673 451.514 398.378 462.701 393.421C467.846 391.137 473.365 388.661 477.824 386.571H478.011C479.975 385.638 481.722 384.834 483.094 384.094" stroke="black" stroke-opacity="0.4" stroke-width="16.4408" stroke-miterlimit="10" stroke-linecap="round"/>
<path d="M206.322 149.499C234.564 149.499 257.458 126.605 257.458 98.3642C257.458 70.123 234.564 47.229 206.322 47.229C178.081 47.229 155.187 70.123 155.187 98.3642C155.187 126.605 178.081 149.499 206.322 149.499Z" fill="#E5F0FF" stroke="#1A171B" stroke-width="14.3779" stroke-miterlimit="10" stroke-linecap="round"/>
<path d="M372.356 145.155C373.198 139.625 372.941 133.983 371.599 128.553C370.257 123.122 367.856 118.01 364.534 113.509C361.212 109.008 357.034 105.207 352.241 102.324C347.447 99.4411 342.131 97.5326 336.598 96.708L258.552 94.8638" stroke="#1A171B" stroke-width="12.1274" stroke-miterlimit="10" stroke-linecap="round"/>
<path d="M207.093 117.094C217.035 117.094 225.094 109.035 225.094 99.0942C225.094 89.1531 217.035 81.0942 207.093 81.0942C197.152 81.0942 189.094 89.1531 189.094 99.0942C189.094 109.035 197.152 117.094 207.093 117.094Z" fill="#293883"/>
</svg>
