<svg width="32" height="33" viewBox="0 0 32 33" fill="none" xmlns="http://www.w3.org/2000/svg">
<g filter="url(#filter0_d_4262_20836)">
<path d="M22.0815 13.2501L20.8398 14.4917L18.3398 11.9917L19.5815 10.7501C19.9315 10.4001 20.3815 10.2334 20.8315 10.2334C21.2815 10.2334 21.7315 10.4001 22.0815 10.7501C22.7732 11.4417 22.7732 12.5584 22.0815 13.2501Z" fill="#269B55"/>
<path d="M20.2576 15.0835L11.2492 24.0835C10.5576 24.7752 9.44089 24.7752 8.74922 24.0835C8.05755 23.3918 8.05755 22.2752 8.74922 21.5835L17.7576 12.5835L20.2576 15.0835Z" fill="#269B55"/>
<path d="M14.1248 9.91644L14.4664 8.7581C14.4998 8.64977 14.4664 8.5331 14.3914 8.44977C14.3164 8.36644 14.1831 8.3331 14.0748 8.36644L12.9164 8.7081L11.7581 8.36644C11.6498 8.3331 11.5331 8.36644 11.4498 8.44144C11.3664 8.52477 11.3414 8.64144 11.3748 8.74977L11.7081 9.91644L11.3664 11.0748C11.3331 11.1831 11.3664 11.2998 11.4414 11.3831C11.5248 11.4664 11.6414 11.4914 11.7498 11.4581L12.9164 11.1248L14.0748 11.4664C14.1081 11.4748 14.1331 11.4831 14.1664 11.4831C14.2498 11.4831 14.3248 11.4498 14.3914 11.3914C14.4748 11.3081 14.4998 11.1914 14.4664 11.0831L14.1248 9.91644Z" fill="#269B55"/>
<path d="M10.7908 14.9164L11.1325 13.7581C11.1658 13.6498 11.1325 13.5331 11.0575 13.4498C10.9741 13.3664 10.8575 13.3414 10.7491 13.3748L9.58245 13.7081L8.42412 13.3664C8.31579 13.3331 8.19912 13.3664 8.11579 13.4414C8.03245 13.5248 8.00745 13.6414 8.04079 13.7498L8.37412 14.9164L8.03245 16.0748C7.99912 16.1831 8.03245 16.2998 8.10745 16.3831C8.19079 16.4664 8.30745 16.4914 8.41579 16.4581L9.57412 16.1164L10.7325 16.4581C10.7575 16.4664 10.7908 16.4664 10.8241 16.4664C10.9075 16.4664 10.9825 16.4331 11.0491 16.3748C11.1325 16.2914 11.1575 16.1748 11.1241 16.0664L10.7908 14.9164Z" fill="#269B55"/>
<path d="M23.2911 19.0833L23.6328 17.925C23.6661 17.8166 23.6328 17.7 23.5578 17.6166C23.4744 17.5333 23.3578 17.5083 23.2494 17.5416L22.0911 17.8833L20.9328 17.5416C20.8244 17.5083 20.7078 17.5416 20.6244 17.6166C20.5411 17.7 20.5161 17.8166 20.5494 17.925L20.8911 19.0833L20.5494 20.2416C20.5161 20.35 20.5494 20.4666 20.6244 20.55C20.7078 20.6333 20.8244 20.6583 20.9328 20.625L22.0911 20.2833L23.2494 20.625C23.2744 20.6333 23.3078 20.6333 23.3411 20.6333C23.4244 20.6333 23.4994 20.6 23.5661 20.5416C23.6494 20.4583 23.6744 20.3416 23.6411 20.2333L23.2911 19.0833Z" fill="#269B55"/>
</g>
<defs>
<filter id="filter0_d_4262_20836" x="-2.16797" y="-1" width="36" height="36" filterUnits="userSpaceOnUse" color-interpolation-filters="sRGB">
<feFlood flood-opacity="0" result="BackgroundImageFix"/>
<feColorMatrix in="SourceAlpha" type="matrix" values="0 0 0 0 0 0 0 0 0 0 0 0 0 0 0 0 0 0 127 0" result="hardAlpha"/>
<feOffset/>
<feGaussianBlur stdDeviation="4"/>
<feComposite in2="hardAlpha" operator="out"/>
<feColorMatrix type="matrix" values="0 0 0 0 0.14902 0 0 0 0 0.607843 0 0 0 0 0.333333 0 0 0 0.64 0"/>
<feBlend mode="normal" in2="BackgroundImageFix" result="effect1_dropShadow_4262_20836"/>
<feBlend mode="normal" in="SourceGraphic" in2="effect1_dropShadow_4262_20836" result="shape"/>
</filter>
</defs>
</svg>
