<svg width="21" height="20" viewBox="0 0 21 20" fill="none" xmlns="http://www.w3.org/2000/svg">
<path d="M11.3584 13.1249H3.83342C2.90009 13.1249 2.05008 12.6416 1.57508 11.8332C1.10008 11.0249 1.08342 10.0582 1.53342 9.2332L5.29175 2.39154C5.75842 1.54154 6.61675 1.0332 7.59175 1.0332C8.56675 1.0332 9.42508 1.54154 9.89175 2.39154L13.6584 9.2332C14.1084 10.0499 14.0918 11.0249 13.6168 11.8332C13.1418 12.6416 12.2918 13.1249 11.3584 13.1249ZM7.59175 2.29154C7.08342 2.29154 6.63342 2.55822 6.39175 2.99988L2.63342 9.84154C2.40008 10.2749 2.40842 10.7749 2.65008 11.1999C2.90008 11.6249 3.34175 11.8749 3.83342 11.8749H11.3584C11.8501 11.8749 12.2917 11.6249 12.5417 11.1999C12.7917 10.7749 12.8001 10.2749 12.5584 9.84154L8.79175 2.99988C8.55008 2.55822 8.10008 2.29154 7.59175 2.29154Z" fill="#727272"/>
<path d="M13.0827 18.9583C9.74935 18.9583 7.04102 16.25 7.04102 12.9167C7.04102 12.7667 7.04935 12.6167 7.05768 12.4667C7.07435 12.1333 7.34935 11.875 7.68268 11.875H11.3577C11.8493 11.875 12.291 11.625 12.541 11.2C12.791 10.775 12.7993 10.275 12.5577 9.84166L11.491 7.90001C11.391 7.72501 11.391 7.51666 11.4743 7.33332C11.5577 7.14999 11.7243 7.025 11.916 6.98334C12.291 6.90834 12.6827 6.875 13.0827 6.875C16.416 6.875 19.1243 9.58333 19.1243 12.9167C19.1243 16.25 16.416 18.9583 13.0827 18.9583ZM8.29935 13.125C8.40768 15.675 10.516 17.7083 13.0827 17.7083C15.7243 17.7083 17.8743 15.5583 17.8743 12.9167C17.8743 10.275 15.7243 8.125 13.0827 8.125C13.066 8.125 13.0577 8.125 13.041 8.125L13.6577 9.24166C14.1077 10.0583 14.091 11.0333 13.616 11.8417C13.141 12.65 12.2993 13.1333 11.3577 13.1333H8.29935V13.125Z" fill="#727272"/>
</svg>
