<svg width="18" height="18" viewBox="0 0 18 18" fill="none" xmlns="http://www.w3.org/2000/svg">
<path d="M12.8571 15.4286H2.57143C1.88944 15.4286 1.23539 15.1577 0.753154 14.6754C0.270918 14.1932 0 13.5391 0 12.8571V2.57143C0 1.88944 0.270918 1.23539 0.753154 0.753154C1.23539 0.270918 1.88944 0 2.57143 0H12.8571C13.5391 0 14.1932 0.270918 14.6754 0.753154C15.1577 1.23539 15.4286 1.88944 15.4286 2.57143V12.8571C15.4286 13.5391 15.1577 14.1932 14.6754 14.6754C14.1932 15.1577 13.5391 15.4286 12.8571 15.4286ZM2.57143 1.28571C2.23044 1.28571 1.90341 1.42117 1.66229 1.66229C1.42117 1.90341 1.28571 2.23044 1.28571 2.57143V12.8571C1.28571 13.1981 1.42117 13.5252 1.66229 13.7663C1.90341 14.0074 2.23044 14.1429 2.57143 14.1429H12.8571C13.1981 14.1429 13.5252 14.0074 13.7663 13.7663C14.0074 13.5252 14.1429 13.1981 14.1429 12.8571V2.57143C14.1429 2.23044 14.0074 1.90341 13.7663 1.66229C13.5252 1.42117 13.1981 1.28571 12.8571 1.28571H2.57143ZM18 15.4286V3.21429C18 3.04379 17.9323 2.88028 17.8117 2.75972C17.6912 2.63916 17.5276 2.57143 17.3571 2.57143C17.1866 2.57143 17.0231 2.63916 16.9026 2.75972C16.782 2.88028 16.7143 3.04379 16.7143 3.21429V15.4286C16.7143 15.7696 16.5788 16.0966 16.3377 16.3377C16.0966 16.5788 15.7696 16.7143 15.4286 16.7143H3.21429C3.04379 16.7143 2.88028 16.782 2.75972 16.9026C2.63916 17.0231 2.57143 17.1866 2.57143 17.3571C2.57143 17.5276 2.63916 17.6912 2.75972 17.8117C2.88028 17.9323 3.04379 18 3.21429 18H15.4286C16.1106 18 16.7646 17.7291 17.2468 17.2468C17.7291 16.7646 18 16.1106 18 15.4286ZM11.5714 4.5C11.5714 4.3295 11.5037 4.16599 11.3831 4.04543C11.2626 3.92487 11.0991 3.85714 10.9286 3.85714H4.5C4.3295 3.85714 4.16599 3.92487 4.04543 4.04543C3.92487 4.16599 3.85714 4.3295 3.85714 4.5C3.85714 4.6705 3.92487 4.83401 4.04543 4.95457C4.16599 5.07513 4.3295 5.14286 4.5 5.14286H10.9286C11.0991 5.14286 11.2626 5.07513 11.3831 4.95457C11.5037 4.83401 11.5714 4.6705 11.5714 4.5ZM11.5714 7.71429C11.5714 7.54379 11.5037 7.38028 11.3831 7.25972C11.2626 7.13916 11.0991 7.07143 10.9286 7.07143H4.5C4.3295 7.07143 4.16599 7.13916 4.04543 7.25972C3.92487 7.38028 3.85714 7.54379 3.85714 7.71429C3.85714 7.88478 3.92487 8.0483 4.04543 8.16885C4.16599 8.28941 4.3295 8.35714 4.5 8.35714H10.9286C11.0991 8.35714 11.2626 8.28941 11.3831 8.16885C11.5037 8.0483 11.5714 7.88478 11.5714 7.71429ZM11.5714 10.9286C11.5714 10.7581 11.5037 10.5946 11.3831 10.474C11.2626 10.3534 11.0991 10.2857 10.9286 10.2857H4.5C4.3295 10.2857 4.16599 10.3534 4.04543 10.474C3.92487 10.5946 3.85714 10.7581 3.85714 10.9286C3.85714 11.0991 3.92487 11.2626 4.04543 11.3831C4.16599 11.5037 4.3295 11.5714 4.5 11.5714H10.9286C11.0991 11.5714 11.2626 11.5037 11.3831 11.3831C11.5037 11.2626 11.5714 11.0991 11.5714 10.9286Z" fill="#C1C1C1"/>
</svg>
