<svg width="21" height="20" viewBox="0 0 21 20" fill="none" xmlns="http://www.w3.org/2000/svg">
<path d="M13.6987 18.9582H7.29873C5.0654 18.9582 4.04873 18.1248 3.59873 17.4332C2.9404 16.4165 2.9654 15.0248 3.67373 13.4082L6.8654 6.15817C6.42373 6.0415 6.0154 5.80817 5.6904 5.48317C5.2154 4.99984 4.93207 4.33317 4.93207 3.6415C4.93207 2.20817 6.09873 1.0415 7.53207 1.0415H13.4571C14.1487 1.0415 14.8071 1.3165 15.2987 1.80817C15.9487 2.45817 16.2071 3.38317 15.9904 4.27484C15.7737 5.1665 15.0404 5.87484 14.1404 6.13317L17.3237 13.4165C18.0237 15.0248 18.0487 16.4165 17.3821 17.4332C16.9321 18.1248 15.9154 18.9582 13.6987 18.9582ZM7.53207 2.2915C6.7904 2.2915 6.18207 2.89984 6.18207 3.6415C6.18207 3.99984 6.33207 4.34984 6.57373 4.59984C6.82373 4.84984 7.17373 4.9915 7.53207 4.9915H7.78207C7.9904 4.9915 8.1904 5.09984 8.30707 5.27484C8.42373 5.44984 8.4404 5.67484 8.35707 5.8665L4.8154 13.9082C4.2904 15.1082 4.22373 16.1165 4.6404 16.7498C5.15707 17.5415 6.3654 17.7082 7.2904 17.7082H13.6904C14.6071 17.7082 15.8071 17.5415 16.3321 16.7498C16.7487 16.1082 16.6904 15.1082 16.1737 13.9165L12.6654 5.8665C12.5821 5.67484 12.5987 5.44984 12.7154 5.27484C12.8321 5.09984 13.0237 4.9915 13.2404 4.9915H13.3737C14.0404 4.9915 14.6404 4.5665 14.7821 3.97484C14.8987 3.49984 14.7654 3.03317 14.4237 2.6915C14.1654 2.43317 13.8237 2.2915 13.4654 2.2915H7.53207Z" fill="#727272"/>
<path d="M12.0338 12.5332C11.4838 12.5332 10.8921 12.4582 10.3005 12.2582C7.93379 11.4665 5.49213 11.5498 5.46713 11.5498C5.13379 11.5998 4.83379 11.2915 4.81713 10.9498C4.80046 10.6082 5.07546 10.3165 5.41713 10.2998C5.52546 10.2915 8.11713 10.2082 10.6921 11.0665C12.8588 11.7915 14.9838 10.4165 15.0088 10.3998C15.2921 10.2082 15.6838 10.2915 15.8755 10.5748C16.0671 10.8582 15.9921 11.2498 15.7005 11.4415C15.6255 11.4998 14.0421 12.5332 12.0338 12.5332Z" fill="#727272"/>
</svg>
